<svg xmlns="http://www.w3.org/2000/svg" xmlns:xlink="http://www.w3.org/1999/xlink" viewBox="0 0 805.52 530.04"><defs><style>.cls-1{fill:url(#Warm_Sky_Gradient_4);}.cls-2{fill:#fff;}.cls-3{fill:#f3a451;}</style><linearGradient id="Warm_Sky_Gradient_4" y1="265.02" x2="805.52" y2="265.02" gradientUnits="userSpaceOnUse"><stop offset="0.25" stop-color="#ee7147"/><stop offset="1" stop-color="#aa576e"/></linearGradient></defs><title>Fichier 1</title><g id="Calque_2" data-name="Calque 2"><g id="Calque_2-2" data-name="Calque 2"><path class="cls-1" d="M39.07,405C-22.75,312.69-6.32,166.73,54.19,113c29.27-26,43.94-8.27,121-37C273.19,39.46,279.81-.52,330,0c66.76.7,69.67,71.62,165.48,121,101.7,52.41,146.3-2.82,219.74,53,54.69,41.56,105.12,129.32,86.3,214-16.56,74.45-82.76,129-145.9,140C547.22,546.94,509,427.14,385.14,438c-76.48,6.71-82.9,54.26-164.58,55C204.44,493.15,98.73,494.1,39.07,405Z"/></g><g id="Calque_1-2" data-name="Calque 1"><path class="cls-2" d="M330.4,307.81V329h-26v-21.2H252.8c-1.2-27.6,3-68.4,11.8-104l30.2,1.8-19.8,78h29.4v-39l26-2.8v41.8h13.2l-2.2,24.2Z"/><path class="cls-3" d="M358.4,269.21c0-40.2,18.4-67,48.2-67,30.6,0,45,23.6,45,62.6,0,40.2-18.4,67-48.2,67C372.8,331.8,358.4,308.21,358.4,269.21Zm26.8-2.6,37.6-19.4C420,233.41,414,225,404.6,225c-13.4,0-19.4,14-19.4,39.2Zm39.6,3.2v-1.4l-37.4,19.2c2.8,13.4,8.8,21.4,18,21.4C418.8,309,424.8,295,424.8,269.81Z"/><path class="cls-2" d="M550.39,307.81V329h-26v-21.2h-51.6c-1.2-27.6,3-68.4,11.8-104l30.2,1.8-19.8,78h29.4v-39l26-2.8v41.8h13.2l-2.2,24.2Z"/><path class="cls-2" d="M314.9,382.16h-.36L315,407h-9.72V362.36h9.22l12.38,24.84h.29l-.43-24.84h9.72V407h-8.57Z"/><path class="cls-3" d="M343.55,389.8c0-11.89,8.28-20.38,18.36-20.38,9.15,0,15.41,6.41,15.41,18.36,0,12.31-8.35,20.38-18.36,20.38C349.82,408.16,343.55,401.75,343.55,389.8Zm23.4-.22c0-8.07-2.52-11.95-6.84-11.95-3.81,0-6.12,3.24-6.12,10.29,0,8.14,2.45,12,6.84,12C364.65,400,367,396.71,367,389.58Z"/><path class="cls-2" d="M391.29,394.4V378.27h-7.35l.87-7.7h6.48v-9.51l10.15-.93v10.44h12.67v7.7H401.44v14.55c0,5.11,3.38,6.12,13.39,6.34l-1.08,8.35C396.69,407.94,391.29,404.13,391.29,394.4Z"/><path class="cls-2" d="M476.68,389.65V407H466V362.36h29.09v8.79H476.68v10.36h15.55v8.14Z"/><path class="cls-3" d="M502,389.8c0-11.89,8.28-20.38,18.36-20.38,9.15,0,15.41,6.41,15.41,18.36,0,12.31-8.35,20.38-18.36,20.38C508.21,408.16,502,401.75,502,389.8Zm23.4-.22c0-8.07-2.52-11.95-6.84-11.95-3.82,0-6.12,3.24-6.12,10.29,0,8.14,2.45,12,6.84,12C523.05,400,525.35,396.71,525.35,389.58Z"/><path class="cls-2" d="M564.16,403.19A15.81,15.81,0,0,1,553,408c-6.27,0-10.08-3.67-10.08-12.53V370.86l10.22-.58v21.46c0,5.9,1.94,7.56,4.9,7.56a9.68,9.68,0,0,0,5.47-1.73c-.14-6.84-.22-16.13-.22-27h10.23c0,16.85.14,27.94.65,36.15l-9.51.5Z"/><path class="cls-2" d="M592.88,380c.15,6.92.29,16.2.29,27H583c0-16.85-.15-28-.65-36.15l9.5-.51.51,4a15.74,15.74,0,0,1,11.16-4.83c6.19,0,10.08,3.67,10.08,12.53V407H603.32V385.76c0-5.83-1.94-7.49-4.89-7.49A9.94,9.94,0,0,0,592.88,380Z"/><path class="cls-2" d="M643.14,403.69a12.94,12.94,0,0,1-9.36,4.32c-7.56,0-13-6.33-13-17.21,0-13.53,9.43-21.24,21.46-21.24V356.39l10.22-.87v14.69c0,17.79.14,28.73.58,36.51l-9.44.5Zm-.58-5.47c-.14-5-.21-11.52-.28-19.15a14.84,14.84,0,0,0-4.4-.8c-4.39,0-6.91,3.24-6.91,10,0,8.07,2.88,11.38,7.13,11.38A7,7,0,0,0,642.56,398.22Z"/><path class="cls-3" d="M127.55,191.6c-8.58-13.91-7-25.11,2.61-31,8.83-5.44,17.72-1.86,25.15,10.22,8.58,13.92,7,25.11-2.61,31C143.87,207.26,135,203.68,127.55,191.6Zm8.07-7.76c5.51,8.95,10.22,12.06,13.9,9.79s2.82-6.81-2.28-15.09c-5.51-8.95-10.22-12.06-13.89-9.79S130.52,175.56,135.62,183.84Z"/><path class="cls-2" d="M189.76,173.16a15.82,15.82,0,0,1-7,10c-5.34,3.28-10.51,2.16-15.16-5.38l-12.92-21,8.41-5.85,11.25,18.27c3.1,5,5.62,5.42,8.14,3.87a9.76,9.76,0,0,0,3.75-4.34c-3.71-5.75-8.64-13.62-14.35-22.88l8.71-5.36c8.84,14.34,14.78,23.71,19.51,30.43l-7.83,5.42Z"/><path class="cls-2" d="M214.53,177.27l-6.46-10.49c-10.5-17-15.62-25.22-19.52-30.85l7.71-5.34,2.22,2.78a12.8,12.8,0,0,1,5.7-8.59c6.38-3.93,14.55-1.1,20.06,7.85,7.1,11.53,3,23.07-7.19,29.38l5.67,9.2Zm2.39-37.17c-4.08-6.62-8.52-8.2-12-6a8.44,8.44,0,0,0-3.1,3.76c2.48,3.89,5.89,9.15,10.3,16.16a8.25,8.25,0,0,0,3.22-1.22C219.25,150.34,220.51,145.93,216.92,140.1Z"/><path class="cls-2" d="M250.46,107.1c-10.89,5.52-14.29,8.38-13.08,10.34,2,3.19,19.22-4.48,24,3.24,3.51,5.7.37,14.06-18.4,24.78l-4.22-7.55c11.56-6.36,15-9.21,13.67-11.3-2.07-3.37-18.68,5.09-23.52-2.76-3.55-5.76-.53-14.73,16.69-24Z"/><path class="cls-3" d="M275.45,103.2l-18.2-24.47,11.16-6.87,12.87,27.76Zm6.79,17.47-5.5-9.47,10.67-6.57,5.5,9.47Z"/></g></g></svg>