<svg xmlns="http://www.w3.org/2000/svg" viewBox="0 0 281.85 326.94"><defs><style>.cls-1{fill:black; opacity: 0.8}</style></defs><title>Fichier 1</title><g id="Calque_2" data-name="Calque 2"><g id="Layer_1" data-name="Layer 1"><path class="cls-1" d="M259.77,62.07c-.48-.11-.27.35-.33.6-2.56.93-4.84,2.86-7.5,3.45-.21.48-.49.47-.51.9-.48,0-.84.42-1.4.14a31.5,31.5,0,0,1,5.85-3.58c1.29-.62,2.69-2.21,4.12-1.91.33.16-.27.5-.25.91C259.39,62.51,259.7,62.26,259.77,62.07Z"/><path class="cls-1" d="M200.73,30.78c3.88,1.58,2.76,6.44-.38,7.72a4.58,4.58,0,0,1-5.07-1.8c-1.76-2.73,1.26-6.58,3.78-6.47A6.18,6.18,0,0,1,200.73,30.78Zm-2.22,1.13c.6.32,1.18.6,1.59.23A1.39,1.39,0,0,0,198.51,31.91Zm2.52,4.2.41.22a.51.51,0,0,0,0-.92A.72.72,0,0,0,201,36.11Z"/><path class="cls-1" d="M133.1,6.29c-.33.44-.16-.52-.59-.6a.7.7,0,0,0,.09,1.25c-1.14.9-3,2.08-4.86,1.35-2.64-1-3.1-3.83-1.86-6.07.92-.84,1.58-1.81,2.78-2.13,1.49-.4,4.42.6,5,2.15.38,1-.17,1.84,0,2.89C133.24,5.72,133.08,5.72,133.1,6.29Zm-3.3-4.24c.24.45,1.17.75,1.43.28C130.69,2,130.18,1.77,129.8,2.05Z"/><path class="cls-1" d="M245.53,69.51c-.06.85-1.53.91-1.8,2-2.65,1.31-5,3.58-8,3.83-.18-.92,1-1.47,1.57-1.62.18-.22-.06-.33.18-.56C240.13,71.89,242.86,69.6,245.53,69.51Z"/><path class="cls-1" d="M135.8,26.84c1,.53,1.1.8,1.51,1.78.62,1.5.8,4.46-.86,5.73a7.22,7.22,0,0,1-4.33,1.13c-3.54-.73-4-4.72-2.81-6.74A4.88,4.88,0,0,1,135.8,26.84Zm-2.94,1.92c.18-.3.67.56.78,0C133.37,28.56,132.72,28.51,132.86,28.76Zm1.88,2.78c.35-.11.28-.58-.12-.73A.46.46,0,0,0,134.74,31.54Z"/><path class="cls-1" d="M150.55,51.81c-.44,1.79-1.66,4.14-3.38,3.65,0-1,.15-2.07.15-3.09.33-.53.81-.41.88-1.09A2.74,2.74,0,0,1,150.55,51.81Zm-1.18,1.85c.18-.25.21-.45-.07-.57C149.12,53.34,149.09,53.54,149.37,53.66Z"/><path class="cls-1" d="M215.08,91.88a.8.8,0,0,1-1,.36C214.41,92.11,214.67,91.7,215.08,91.88Z"/><path class="cls-1" d="M175.3,75.68c.52,1.24,1.36,2.17,1.54,3.37.56,3.92-3.37,7.31-5.64,9.78-1.31.15-2.52.5-4-.82,0-1.61-1-2.92-2.58-4.1a10.28,10.28,0,0,1-.59-5.75C166.43,74.55,170.23,71.74,175.3,75.68Zm-5.59,1.47a1.48,1.48,0,0,0,1.75.19A1.13,1.13,0,0,0,169.71,77.15ZM172,82.94l.5.28c.28-.22.27-.41.3-.76l-.4-.22A.72.72,0,0,0,172,82.94Z"/><path class="cls-1" d="M252.65,146.49c-.38,1.24-1.92,1-3.06.52C250.41,146.13,251.51,146.24,252.65,146.49Z"/><path class="cls-1" d="M110.53,87.16c-.52-.41-.44-1-1.38-1.3-1.45-2.55,1.46-6,4.31-3.65a4.09,4.09,0,0,1,.46,3.16A5.11,5.11,0,0,1,110.53,87.16Zm2-2.68.17-.3c-.16-.07-.35-.24-.46-.13C112.42,84.19,112.19,84.42,112.57,84.48Z"/><path class="cls-1" d="M28.09,70.19c-2.31.29-4.06,1.82-6.65,1.94S15.85,71,13.58,69.42s-3.75-3.83-5.13-5.67C8.3,62,7.33,60.46,7.68,58.56c.65-3.65,4.11-7,6.54-9.27a36.28,36.28,0,0,1,5.77-2,11.08,11.08,0,0,1,6.92-.07,17.89,17.89,0,0,1,6.09,3c2.68,2.09,3.15,5.78,2.28,9.08a20.88,20.88,0,0,1-1.93,4.6A16,16,0,0,1,28.09,70.19ZM26.26,53c-.1.95,1.87,1.55,2.29.63C28.22,52.92,26.75,52.45,26.26,53Zm4.1,9.85c-.34.59.31,1.45.86,1.28C31.56,63.51,31,63,30.36,62.88Z"/><path class="cls-1" d="M256.17,190a1.72,1.72,0,0,1-.2-1.05,7.19,7.19,0,0,1,4.83-3.88c1.05.84,2.68,1.37,3.58.69.29-.56-.05-.94,0-1.44,2.47.05,5.38.57,7.41,2.32a13.28,13.28,0,0,1,2.22,3.1c.67,1.1,1.76,2.16,2.06,3.15.58,1.91-1.21,3.82-1.89,5.94-2.23,1.21-5,4-7.94,4a22,22,0,0,1-2.4-.43,9.3,9.3,0,0,1-4.72-1.47,10.57,10.57,0,0,1-2.63-2.14,14.52,14.52,0,0,1-2.14-4.65c-.05-.76.42-1.57.21-2.25.2-.72.63-.8.44-1.48C255.35,190.06,255.79,190.11,256.17,190ZM268,193.2c0,.65,1.85,1.71,2.19.57C269.65,193.21,268.43,192.54,268,193.2Z"/><path class="cls-1" d="M262.93,184.8c-.36.37-1,.57-1.35,0C262,184.52,262.56,184.26,262.93,184.8Z"/><path class="cls-1" d="M220,201.19c0,2.18,1.44,3.77.29,5.58a8.92,8.92,0,0,1-2.05,2c-.74.57-1.63,1.33-2.31,1.75-2,1.2-5.57,1.13-7.45.56a9.47,9.47,0,0,1-3.67-1.94c-.33-.35-.74-1.23-1.2-1.86-.93-1.31-2-3-1.41-4.77.35-1.11,1.37-1.5,1.26-2.46C207,193.21,216,195.46,220,201.19Zm-9.67-3.47a1.66,1.66,0,0,0,2.14.41C212.15,197.41,210.75,197,210.31,197.72Zm5,5.87c.07.49,1.3,1.18,1.57.49C217,203.51,215.66,202.86,215.33,203.59Z"/><path class="cls-1" d="M48.81,124.44c-.76,3.68-2.42,6.34-5.19,8a6.21,6.21,0,0,0-2.68,1c-1.91-.22-4.07-.18-6-1.28a7.81,7.81,0,0,1-3-3.65c-.12-.37.13-.9,0-1.44s-.46-.83-.5-1.21a7.71,7.71,0,0,1,.8-3.78c.75-1.33,2-2.18,2.65-3.53a15.93,15.93,0,0,1,4.22-1.85,7.36,7.36,0,0,1,1.15-.41c1.54-.11,3.27.89,4.57,1.51C47.82,119.26,48.3,122.21,48.81,124.44Zm-7.51-4.5c.5.59,1.6.94,2.05.36C43.14,119.76,41.73,119.31,41.3,119.94Zm4,6.9c.31.2.61.65,1,.57C46.62,126.87,45.66,126.09,45.34,126.84Z"/><path class="cls-1" d="M20,133.06c-.19-1.35-.46-1.78.06-3.14a4,4,0,0,1,3.81-2.08C29.82,129.48,24.17,138.09,20,133.06Zm3.07-3.56c.37.13.77.34,1.07.21C23.78,129.55,23.37,129.3,23.09,129.5ZM25,131.25c-.19.29.16.55.39.48C25.64,131.34,25.29,131.32,25,131.25Z"/><path class="cls-1" d="M146,204.85c.1.17.23.33.07.57-.05-.21-.44-.33-.49-.54C145.7,204.75,145.91,205,146,204.85Z"/><path class="cls-1" d="M147.34,207.18c2.66,1.37,4,3.6,5.69,5.85,1.1,1.51,2.1,2.44,2.07,4.08-.77,0-1.48-.94-2.25-1.4-.83-2-2.74-3.1-3.89-4.84C148.22,209.76,148.11,208.24,147.34,207.18Z"/><path class="cls-1" d="M13.47,134.13c1.41,2.47,2.86,4.73,1.33,7.49a15.61,15.61,0,0,1-2.15,2.89c-1.86,1.94-5.64,1.76-7.58.09-.31-.27-.33-.78-.57-1.11-.39-.55-1.38-1.14-1.65-2-.06-.18.12-.5.09-.87A9.81,9.81,0,0,1,3,137.48a7.45,7.45,0,0,1,5.53-4.42A6.41,6.41,0,0,1,13.47,134.13Zm-3.25,1.08c.41.44,1.46.83,1.85.25A2,2,0,0,0,10.22,135.21Zm3.52,5c.35.14.79.62,1,.31C14.82,140.12,13.93,139.72,13.74,140.23Z"/><path class="cls-1" d="M144.54,212.61a4.75,4.75,0,0,0-.6.59c-2.71-.57-2-2.81-3.4-4C142.31,208.43,144.12,211.2,144.54,212.61Z"/><path class="cls-1" d="M165.55,223.66a.56.56,0,0,1-.68.27.62.62,0,0,1-.07-.82C165,223.06,165.38,223.44,165.55,223.66Z"/><path class="cls-1" d="M157.83,220.23c-.46.17-1.45-.63-1-1.23C157.27,219.07,158,219.72,157.83,220.23Z"/><path class="cls-1" d="M184.39,242.07c-.3.37-1.12.08-1.38-.37C183.34,240.73,184.29,241.61,184.39,242.07Z"/><path class="cls-1" d="M133.14,216.9c.25.15,0,.5-.18.55-.09-.2-.4-.34-.18-.62C132.92,216.92,133.06,217,133.14,216.9Z"/><path class="cls-1" d="M201.32,257.3l-.51.9c-1.46.19-3.36-1.89-5-3.5a3.62,3.62,0,0,1-1.24-2c1.23-.57,2.22.85,3.12,1.5C199.11,255.22,200.74,255.92,201.32,257.3Z"/><path class="cls-1" d="M100.18,216c.27.23.21.56.32.84-.18.17-.41.14-.54.49C99.49,217.1,99.73,216.29,100.18,216Z"/><path class="cls-1" d="M174.21,264.36a1.5,1.5,0,0,0,.31,1.1c-.78,0-1.68-1.37-2.17-2C172.86,263.19,173.3,264,174.21,264.36Z"/><path class="cls-1" d="M178,268.72c-1.19.74-2.28-1.1-2.48-1.92C176.69,267.21,178,267.42,178,268.72Z"/><path class="cls-1" d="M190.28,280.42c-.4-.11-.36-.35-.49-.54C190,279.57,190.72,280.05,190.28,280.42Z"/><path class="cls-1" d="M189.49,282.75c-.75.48-1.35-.71-1.12-1.29C189,281.52,189.2,282.34,189.49,282.75Z"/><path class="cls-1" d="M12.07,193.63c-.21.41.41.09.65.49-.48,2.34-3.37,2.61-5.18,3.56-1.58.83-3,2-4.37,1.9-.49.72-1.53,1.92-2.81,1.46-.28-.29,0-.72-.36-1A2.85,2.85,0,0,1,2.58,199C5.23,196,8.26,193.83,12.07,193.63Z"/><path class="cls-1" d="M220.55,326.17c-2.73,2.37-4.25-1.27-6.13-3.2a36.55,36.55,0,0,0-3.88-3,35.6,35.6,0,0,1-5.82-5.39c-.91-1.29-2.48-4.22-1.15-5.94s5.43-.2,7,.5c3.72,1.66,4.56,4.52,5.57,7.24.5,1.34,1.32,2.4,1.78,3.64C220.21,321.64,221.45,323.89,220.55,326.17Zm-8.74-11.94c.07-.13.15-.26.22-.4a1.1,1.1,0,0,0-.63-.75A.62.62,0,0,0,211.81,314.23Z"/><path class="cls-1" d="M252.18,56.07c-.56.52-1.24,1.55-1.88.53,0,.08.57-.6,1.08-1Z"/><path class="cls-1" d="M202.77,42.64c-.27-.66.85-1.87,1.32-1.64C204.76,41.34,203.79,43.15,202.77,42.64Z"/><path class="cls-1" d="M192.39,40.89c.15-.11.12.08,0,0,0,.17.63.25.86.35s.11.24.23.53c1.88.83,2.48,2.52,3.21,3.92.07.39-.15,1,.37,1-.1,2.2.62,4.17.19,6.46-1.14,2.23-2.52,4.87-5.25,6-.32.13-.79.1-1.2.25-1.41.51-3.75,1.44-5.27,1.39a26.19,26.19,0,0,1-2.65-.7c-2.14-.38-6.26-2.73-7.22-5.26-.28-.74-.46-1.88-.68-2.77-.39-1.49-.91-3.34-.16-5.11.89-2.12,2.55-3.4,3.88-5.48,1.45-1,3-1.37,4.7-2.24,1.31.17,1.89-.62,3.18-.72C188.69,39.5,191,39,192.39,40.89Z"/><path class="cls-1" d="M151.86,65.9c-.14.75-1.42,1.85-1.28,3l-.3-.17c-.29.73-1.51,2.14-1.74,3.78a36.52,36.52,0,0,1,6.29,2.22c.25.16-.08.48.17.63.49.14,1,.48,1.39.12.61.78.33,1.61.8,2.57-1.2,2.17-.41,4.71-2.42,6.17-.27,1.29.79,2.2,1.49,3.22.41-.31.57-.12,1.08,0,1.33.17,2.62-.57,3.79.55-.06.84,2.09,1.61,2.27,2.07a5.86,5.86,0,0,1,.55.44c.32.46.27.87.66,1.17a2.72,2.72,0,0,0,1.68.54c.39.2,0,.11-.07.36a14.67,14.67,0,0,0,4.17,4.33c-.21.32.27.44.12.73,2.84,1.26,3.5,6.1,6.85,5.19.11-.08.69.08.56.18,2.89-1,5.84-3,9.23-3,1.71.74,1.83,1.91,2.43,3-.14.37-.34.77.11,1-2.42,3.4-6.59,2.51-10.14,2.75-.19.58-.86.6-1.14,1.08s.13.29.07.57-.64.48-.35.86.55.55.57,1.11a1.91,1.91,0,0,1,1,1.08,7.18,7.18,0,0,0,8.06-.22c1.59,0,2.87-1.21,4.1-2.58a32.31,32.31,0,0,1,6.71-3.23c1.41.24,2.69-.55,4-.78,1.17-.2,2.42,0,3.52-.39,1.58-.58,2.7-1.78,4.45-2.26.88-1.59,3.19-2,4-4,.18-.26.48-.1.68-.27.09-.59.77-.66.67-1,1.79,0,3.72-2.2,5.65-2.76a5.88,5.88,0,0,1,4.43-2c.83.64,2.14.6,2.76,1.68.26.47-.12,1.27.49,1.47-.46.16-.32,1-.58,1.26a14.55,14.55,0,0,1-2.65,2.6c-.89.63-2.18.84-3.22,1.49A46.56,46.56,0,0,1,216,104c-.53.22-1.5.17-1.58.7a3.16,3.16,0,0,0-2.41,1.68c-.4-.27-.25.29-.38.45-.07-.06,0-.16-.14-.21a2.13,2.13,0,0,0-.31,1c-.22.26-.07-.24-.25-.27-.44.95-2.09,2.23-3.06,3.56-1.13.24-2.76,2.38-2.39,3.55.43.14.67-.4,1.14-.15a2.71,2.71,0,0,0,.54,4.67c1.33.63,3,.22,4.1.46.15.55,1.21.91,1.31,1.66,0,1.4-1.21,2.95-1.86,4.24-.22.26-.07-.24-.24-.27-2.71,3.65-5.69,5.91-9.56,6.64-2.75,4.34-7.52,12.92-2.42,16.49,2.4,1.67,7.08,2.08,9.47,1.5,1.49.37,2.73-.11,4.17.1,4.81-.73,9.19-3,14.05-3.58a2.79,2.79,0,0,0,2.36.27c.11.08.19.08.26,0,.23.08.22.22.34.33,2.06,1.15,4,.16,5.83,0a42.84,42.84,0,0,1,4.94.14c1,0,2-.29,2.93.2.2.09.26-.31.43-.29,0,.35.07.18.45.38-.51,1.43-2.14,1.19-3.22,1.49A70.62,70.62,0,0,1,230.31,151c-1.88,1.23-3.9,2-5.78,3.22-5.69.6-11.52.72-17.15,1.57-1.18.93-3.07,1.6-4.15,2.68-1.76,1.77.39,3.68,1.54,5.24-.26.76.41,1.17.7,1.58-1.36.74-2.41.94-3.37.35-1.12-.7-2.71-2.59-4.1-1.65-1.17.8-1.71,3-1.5,4.31.25,1.56,1.69,3.23,2.88,4.27.47.4.16,1,.87,1.28.18,1.54,2.62,3,4.21,4.49a8.67,8.67,0,0,0,3.49,1.3c1,.48,2.26,1.29,3.47,1.83a3.09,3.09,0,0,1,.52,0c.66.39,1.15,1.24,1.72,1.63a4.09,4.09,0,0,1,1.79,1.28c2.66.84,6.24,3.4,8.76,4.4.1.18-.11.14-.13.46,1.26.57,2.17-.11,3.3,0,1-1,2.46-2.79,4-3.41,2.16-.85,6.67-.83,9.43.16a15.24,15.24,0,0,1,3.86,2.3c1.5,1.2,1.73,3.49,1.86,5.15a4.74,4.74,0,0,1-.13,2.57,21.31,21.31,0,0,1-2.21,3,13.34,13.34,0,0,1-2.48,3.22c-.35.27-1,.53-1.54.86-2.61,1.63-6.8,2.45-9.91,1.16s-3.15-2.72-4-5.15a10,10,0,0,1-.86-4.58c-3.25-2-6.15-4.53-9.49-6.14-1-.5-2.91-1.17-3.54-2.4-1.92-.68-2.92-1.71-4.83-2.45-.14-.12-.11-.24-.24-.53-2.69-1.38-5.49-2.51-6.79-4.36-.1.2-.25,0-.57.07-1.51-1.27-3.48-1.8-4.56-.58-.31,0-.69-.24-.89.16.16.77-.21,1.92.1,2.17-.6-.1-.25.67-.95.52-.3.37.28.49.06.83-.31-.1-.62-.21-.79.22.09.88,1,1.53,1.49,2.29a1.61,1.61,0,0,0,.44,1.57c-.13.34-.5.07-.39.44s.32-.15.62.09c-.26,1.72-.26,2.52-.47,4.36a1.51,1.51,0,0,0-1.18.92c-1.83.07-3.13.13-4.92.27a19,19,0,0,0-3.07,3.82c-1.87,3.61,2.68,5.28,4.31,7.59-.19-.28.21.45.23.52.21.63-.23,1.18.17,1.82-.73.8-1.14,2-2.27,2.15-1.86.18-4.5-2.52-4.55-3.88-.92-.7-1.57-2.11-2.85-2.93-1.75-1.12-4.84-.95-5.67,0-.54.6-.36,1.47-.69,2.39-1.06,0-.65,1.77.33,1.77-.59,1.82.84,3.09.43,4.86.08.31.35.24.6.34-.51.35.33,1-.23,1.59.12.05.16.12.14.21a6,6,0,0,0,1.7,2.15c1.67,1.33,2.33,3.36,3.63,4.82,0,2,2.9,2.7,5,4.27.2.16.23.45.43.64,1,.95,2.29,1.4,3,2.11a7.7,7.7,0,0,1,1.69,3.33c-.38-.14-.78-.37-1-.05-.28.56.56.81,1.08,1.14-.51,2.72-2.7,3.54-4.91,3.32-7.09-2.84-8.73-7.71-11.94-11.89.1-.25-.24-.38,0-.67-1.27-1.11-1.28-2.57-2.55-3.69-.87-3.25-3.07-6.13-4.6-9.2-1.13-1.23-3.61-1.74-4.12-3.24-1.69-.85-2.17-3-4-3.86-2.27-1.06-5-1.66-7.56-2.54-2.27-.78-6.27-.94-7.21,1.75-.07.23.1.4.08.57,0,.38-.56.67,0,1-.62.35-1.68,0-2.5.45a5,5,0,0,0-1.29,3.23c-.24-.35.14-.88-.41-1.15-.69.16-.76,1.47.07,1.76.51.09-.12-.8.38-.45-.2.73-.64,1.53.06,2-.12.19-.38-.11-.48.14.08.16.85.21,1.18.26,0,.52-1.39.2-1.39-.12-.95.54-1.9,1.07-2.82,1.72-.65,2.62-3.8,4.29-5.11,6.5-1,0-1.67.88-2.45,1.53-.38,1.65,1.63,1.58,2.85,1.74,2.89.36,6.92,1.66,8.54,4.55a10.16,10.16,0,0,1,.55,2.55c.33,1.29,1.19,2,2,3.24.24.07.49-.1.56.19-2.67-.71-1.85,3.77-.64,4.66a28,28,0,0,1-.08,4.58,9.08,9.08,0,0,0-.36,3.23c.32,1.89,1.32,3,.87,5.26s-.74,4.38-1,6.29c-.05.32-.26.68-.31,1-.16,1.2.15,2.52-.08,3.66-.26,1.3-1.28,2.51-1.17,4a56.19,56.19,0,0,0,5.09,10.66c-1.54,2,2.82,4.15,1.22,5.58,0,1.07,1,1.87,1.14,2.9,1.27.72.56,2.55,1.53,3.63,1.42.09,1.6,1.16,1.79,2.2,2.16,1.09,2.76,3.28,2.89,5.2a12.5,12.5,0,0,0-1.1,1.49c-3.46.22-4.07-2.68-5.49-4.81-1.08-1.63-2.7-3.34-3.26-5-.17-.52-.11-1.19-.28-1.61-1.22-3-4-4.47-5-7.31-2-3.78-4.48-7.43-5.1-11.6-.94-1.71-1.66-3.48-1.06-5.62.14-2.56-1.65-4.69-2.11-7.27a4.45,4.45,0,0,1-1.22-2.54c-.27-.18-.31-.42-.59-.6-.09-2.08-1.28-3.87-2.35-5.68-1.77-1.06-3.32-3.06-5.23-4.8-1.14-1-2.61-1.84-3.67-2.86-.66-.63-1.82-2.14-2.84-2-1-1.74-2.91-.64-4.22-1.19-.91-.38-1.51-1.44-2.43-2-1.16-.74-2.46-.74-3.68-1.67-.39-.4-.24-.95-.86-1.29-.92-2.63,3-5.48,2-8.51,1.7-1.84,1-4.28-1.37-5.53a3.15,3.15,0,0,0-2.38-3.06c-.54-.16.2-.67-.16-.88s-.51,0-.73.12c0-.61-.68-.87-1-1-.63-.57-.82-1-1.64-1.32.36-.3-.44-.27-.07-.57-1.87-.89-2.66-2.81-4-4.12a3,3,0,0,0-1-1.91,6.27,6.27,0,0,0-1-3.35c.72-.58-.23-1.52.51-1.83-.25-.22-.18-.52-.54-.7a6.93,6.93,0,0,0,.3-3.8,1.59,1.59,0,0,0,.39-1.63c-1.62-1-1.78-3.17-3.29-4.5a3.78,3.78,0,0,0-4.72.65,5.91,5.91,0,0,0-1.28,1.79c-.22.53,0,1.15-.19,1.74-.48,1.81-2.31,2.79-2.72,3.89a16.39,16.39,0,0,0-2.38,1.17A10.78,10.78,0,0,1,77.5,196c-.55.23-1.17.26-1.64.79-.16.39.28.6,0,1-.85.05-.62-1-.85-1.53a5.09,5.09,0,0,1-.8-2.57c.41-.93.5-1.53.88-2.28a4.94,4.94,0,0,0,1.83-.42c1.18-2.24.62-5.34-2.19-3.62-.66.4-1.34,1-2.14,1.44s-1.65.68-2.16,1-.63.95-1.09,1.23c-.17.11-.44,0-.58.08-1.67,1.09-4.13,3.41-5.56,1-2.71-1.26-.57-3.74,1-5.26a32.41,32.41,0,0,1,3-3.05c.22-.14.63-.11.94-.26s.68-.65,1-.78.57.11.77,0a12.83,12.83,0,0,0,1.81-1.1c0-.12-.19-.3,0-.25-1.06-.92-3.92-1.69-5.47-3a.86.86,0,0,1,.19-.81c-2.83-2.09-7.41-4.4-10.62-4.14-.27.46-1.12.44-1.08,1-2.79.49-4.69,2.28-7.46,2.67a9.18,9.18,0,0,1-3.9,1.77,8,8,0,0,1-2.83,2c-.14.43-.39.41-.56.75-.24-.25-.27-.32-.55-.18,0,.15.2.22.34.32-.21,1.94-2.31,3.62-4,4.5-1,.5-2,1.34-2.76.69-1.3-1.15,1.29-2.42,1.31-3.5,1.19-1.82,3.23-2.31,5-2.84,2-2.85,5-2.69,7.12-5.11,1.88-.48,3-2,4.59-3.23.71-1.31,1.48-1.44,2.13-2.37a3.16,3.16,0,0,0-.67-2.1c-2.83-1.21-5.38-1.9-6.58-4.5a16.65,16.65,0,0,1-.75-2.67c-.21-1,.08-1.93-.06-2.94a9.34,9.34,0,0,0,1.12-3.86c-.07-.27-.48-.08-.23-.53a26,26,0,0,0-5.21-3.2c-1.43-.74-2.79-2-3.8-2.4-1.34-.61-3.1-.3-4.7-.8a28.54,28.54,0,0,0-3.35-1.1c-1.43-.26-2.66-.14-3.82-1-.37-1,.09-1.84,1.06-2.58,1.38-.55,2.87.58,4,1.18,1.68.92,4.08.49,5.81,1.42.18.1.14.25.34.33.94.34,2.37.23,3.58.69,1.37.52,2.54,1.44,3.72,1.83a6.77,6.77,0,0,0,4.85.09c.69-1.62,2.65-2.41,3.56-3.28,1.52.07,2.48-1.82,4-1.87.66-.86,1.59-.79,2.16-1.95.51-.39,1.09-.53,1.51-1.27.14-.1.39.2.51,0,.26-.65,0-1.81,1-1.71-.15-.51.12-.63.27-1.17s-.66-.66-.09-1.24c-.88-1.79-3.15-3.18-3.31-5.17.86-2.79,3.43-2.81,5.14-1.6,1-.17,2.85,0,3-1.35,2.34.07,3.93-1.47,6.11-1.45.05-.45-.28.15-.46-.12.78-.23.49-1.33,1.23-2,.12-1.43-.06-3.53,1.45-4.21,1.09-.5,2.66.5,3.58-.5.42-1.58-.35-2.83-1-4.12.18,0,.31-.29.44-.54a2.16,2.16,0,0,0-.74-.81c.1-.38.38-.07.53-.24a2.44,2.44,0,0,0-1.86-.91c0-.33.06-.92-.43-.64a2.27,2.27,0,0,0,.17-1.49c-.48-.31-.79-.53-.82-1.12.07-.36.33-.06.52,0,0-.25-.78-1.26-1.11-.62,0-.85-1.1-1.49-1.21-2.54.51-.23,1.07-.66,1.14-.14,1-.06.51-1.18.59-1.52.23.33.16.35.65.49-.18.18-.47.17-.39.45.39.14.49-.49.56-.75.09.36.41,0,.67,0,.63-1,3.09-2.66,2.42-4,.63-.21.12-1.13,1-1.4-.19-.09,0-.55-.2-1,.21-.2.71-.21,1.15-.4-.38-.4,0-.5-.32-.84.37.48.65-1.09,1.23-.77a1.35,1.35,0,0,1,0-.67c.4.38.88-.22,1.21-.51-.11,0-.23,0-.31.09-.09-.43.77,0,1-.21.07-.43.21-.36.29-.76.24.08.23.22.35.33.2-.15.18-.54.39-.7a3.12,3.12,0,0,1,.47-.13c.37-.5.4-1.25.87-1.76.82-.92,1.82-1.18,2.83-2,2.59.25,4.66-1.08,7.17-.06-.21-.38.39,0,.17-.3.42,0,.91.24,1.33.22a3.4,3.4,0,0,1,3-.93c.35,0-.15-.43-.13-.47.46-.33,1.23,0,1.73.45.25-.13.21-.44.36.07A18.33,18.33,0,0,1,104,88c.22.31.39.11.55.44,1.78.22,3.51.26,5.33.62a3.57,3.57,0,0,0,3.6.18c.51.4.78,0,1.23.16,0-.21.07-.37.23-.4s.17.62.84.61a.77.77,0,0,1-.18.56c2.7,1.73,5.27-1,7.13-2.33,0-.73.24-1,.35-1.79,1.61-.2,2.29-2.88,3.89-3.62,2.76-2.89-.26-4.52-2-6.13a2.13,2.13,0,0,0-.85-2.47c-.33-1.69-1.39-2.85-2.07-4.07a.33.33,0,0,0,.09.31c-.45-.55-.08-2.06-1.11-2.73-.08-.95.41-1.88-.11-2.85.52-.22.53-1.26.34-1.78a4.78,4.78,0,0,0,.65-3.74c.24-.31.66-.87.52-1.16,2.5-.74,4.64-2.77,7.14-3.51.47-.9.65-1.46,1.33-1.89.53.24.76,1,1.22,1.35,4.17,3.17,7-2.69,10.59-2.37.35.45.93.83,1.11,1.55,0,.2-.17.41-.08.62.3.73,1.31,1.93,1.81,2.87.22.4.2,1,.81,1.38s1.1,0,1.75.19c1-.52,1.67-1.87,2.68-2.18a.68.68,0,0,1-.64.43c.55,1-.27,2.21-.62,3.22.54,1,.83,2.35,2.3,2.48s4.12-2.24,5.4-4c.34-.45.43-1.11.75-1.56.17-.24.51-.33.7-.53,1.06-1.17,1.87-2.61,2.94-3.11.58,1.2-.31,2.53-.71,3.84a1.09,1.09,0,0,0-.67,0,2.78,2.78,0,0,0-.53,1.42,30.33,30.33,0,0,0-5.47,5.25,3.5,3.5,0,0,1-2.34,3.44C151.89,66.6,152.25,66.15,151.86,65.9Zm-9.14,163.79c-.11.12-.26.12-.33.35.2.08.16.24.34.33C142.92,230.09,143.06,229.83,142.72,229.69Zm-1.92,33.43a1,1,0,0,0,.33,1.77A1.43,1.43,0,0,0,140.8,263.12Zm6.42-204.46c.47.1,1.07.6,1.38.12C148.11,58.64,147.57,58.3,147.22,58.66Zm3.26,3.82c.3.36,1.24.7,1.59.24A2.45,2.45,0,0,0,150.48,62.48ZM130.33,53.9c.57.22,1.21.71,1.59.24A2,2,0,0,0,130.33,53.9ZM148.83,75c1.87,1.06,3.47,1.14,4.83.35C152,75,150.26,74.53,148.83,75Zm58.08,44.5c.5.07,1.07.41,1.44,0C207.85,119.48,207.31,119.24,206.91,119.53Zm4.17,4.33c.23.29.67-.18.48-.39C211.35,123.54,211,123.46,211.08,123.86Zm-18.15,14.37a2.6,2.6,0,0,0,1.23.16,2.51,2.51,0,0,0,.67-1.88C193.76,135.54,193.07,137.19,192.93,138.23Zm7.94,12.66c1.4.86,3.06.08,4.62.49,0-.49.8-.33.33-.6C204.14,150.71,202.37,150.31,200.87,150.89Zm1.34,5.12c-1.3.44-2.13,1.89-2.89,3.26.62.49.69,1.54,1.57,1.68.3-.9-.52-1.49-.25-2.39C201.39,158.24,202.57,157,202.21,156ZM194,163.65c.33.28.52.07.85.35a2.85,2.85,0,0,0,.67-.95,2.23,2.23,0,0,0-.68-.91A1.65,1.65,0,0,0,194,163.65Zm40.59,24.85a1.8,1.8,0,0,0,2.41.17A1.69,1.69,0,0,0,234.54,188.5ZM115.17,123.75c.51.13,1.11.57,1.48.18C116.11,123.72,115.55,123.4,115.17,123.75Zm123.67,70.48c.39.48,1.44,1,1.7,0C240.12,193.8,239.15,193.33,238.84,194.23ZM114.71,124.55c.48.18,1,.53,1.33.22A3.6,3.6,0,0,0,114.71,124.55Zm2.05,1.29-.4-.23C116.07,126,116.62,126.27,116.76,125.84Zm.43,3.94.22-.4-.4-.23Q116.6,129.6,117.19,129.78Zm-49.76,28c.54,0,1.25.64,1.64.14C68.51,157.83,67.8,157.2,67.43,157.79Zm61.74,60a.59.59,0,0,0,.11-1.13A.73.73,0,0,0,129.17,217.83Zm0,3.46c1.77,1.19,4.1,1.78,5.53.74C132.75,221.24,130.82,220.7,129.21,221.29Zm12.55,23.47c-.87-1.51-.67-3.54-.24-5.43-.19-.44-.59-1.75-1.28-1.25-.4.81.17,1.61.18,2.49.05,2.31-.34,4.82,2.07,6.18C143.25,245.85,142.1,245.34,141.76,244.76ZM38.28,183c.15-.17.43.14.53-.23C38.57,182.47,38.08,182.74,38.28,183Z"/><path class="cls-1" d="M152.69,54.34c-.53-.23-.57,1.25-1.44.91.14-.63.34-2.09,1.23-2,.44.27.12.76.31,1.1C152.71,54.5,152.66,54.4,152.69,54.34Z"/><path class="cls-1" d="M206.84,98.07c1.27-1.5,3.63-1.71,5.38-2.52.31.08-.34.44,0,.52-.54.09-1.16,0-1.57.44-.16.15,0,.61-.14.71C209.56,98.13,208.22,97.83,206.84,98.07Z"/><path class="cls-1" d="M263.14,145c1.8-.41,3.84-.22,5.81-.69s4-1.62,6.27-1.49a21.71,21.71,0,0,0,2.14.41c1.34-.08,3.24-1.82,4.49,0-.92,1.88-3,.36-4.43.81-.69.22-1.41.57-2.15.77-3.34.92-7.07-.43-10.39.62C264,145,264,145.55,263.14,145Zm11.57-1.28c-.2.38,0,.33.29.43l.17-.31C275,143.71,274.88,143.83,274.71,143.72Z"/><path class="cls-1" d="M201,103.66c.19.45-.72.92-1.18.92C200.19,103.86,200.9,104.22,201,103.66Z"/><path class="cls-1" d="M144.62,203.8c.17-.14.19.09.3.17s.14-.08.21-.15c.2.2.08.49.28.69C145.28,204.57,144.85,204,144.62,203.8Z"/><path class="cls-1" d="M146.73,205.91c.3.25.34.68.63.76s-.43.34-.12.46C147.1,207.08,146.21,206.15,146.73,205.91Z"/><path class="cls-1" d="M159.7,223c-.14.12-.1,0,0-.16,1.25,1.3,3,2.7,4.22,4.23-.3.24-.35-.49-.61-.08-.12.15,0,.23-.07.36.31.31.37-.29.67,0-.81.5.44.95,0,1.6A16.8,16.8,0,0,1,159.7,223Z"/><path class="cls-1" d="M155,243.35a33,33,0,0,1,9.7,11.41A48.78,48.78,0,0,1,155,243.35Z"/><path class="cls-1" d="M165.41,255.57c1.29.26,2.31,1.91,3,2.88,2.13,1.52,2.49,3.46,4.2,4.75C170.08,261.88,167.1,258.19,165.41,255.57Z"/><path class="cls-1" d="M182.68,274.42c1,.08.81,1.21,1.58,1.42-.08.1-.23,0-.31.09.34.14.94.69.92,1.18A11.39,11.39,0,0,1,182.68,274.42Z"/><path class="cls-1" d="M127.33,267.56c-2.08-1.9-1.52-4.54-2.08-6.86.87-.05.77,1.4,1.27,2.43.65,1.36,1.91,2.46,1.49,4.15-.19-.09-.25.31-.42.29S127.4,267.49,127.33,267.56Z"/><path class="cls-1" d="M168.9,43.64C169,45,167.24,46.8,166,47.42,166.07,45.83,167.29,43.37,168.9,43.64Z"/><path class="cls-1" d="M42.68,201.48c-.41,1-.54,2.19-1.44,3a4.3,4.3,0,0,1-3.8.63c-1.4-.69-1.73-2.4-1.68-3.59.9-1.72,2-2.84,3.26-3.19A4,4,0,0,1,42.68,201.48Zm-2.49.19c.11.28.14.06.4.23C40.89,201.55,40.33,201.24,40.19,201.67Z"/></g></g></svg>