<svg xmlns="http://www.w3.org/2000/svg" xmlns:xlink="http://www.w3.org/1999/xlink" viewBox="0 0 332.07 428.46"><defs><style>.cls-1{fill:url(#Lemon_Squeeze_Gradient_2);}</style><linearGradient id="Lemon_Squeeze_Gradient_2" y1="214.23" x2="332.07" y2="214.23" gradientUnits="userSpaceOnUse"><stop offset="0.12" stop-color="#b1ef8f"/><stop offset="0.8" stop-color="#67dfc2"/></linearGradient></defs><title>shape-mobile</title><g id="Calque_2" data-name="Calque 2"><g id="Calque_1-2" data-name="Calque 1"><path class="cls-1" d="M332,2.08a1,1,0,0,0-.46-.43c-1.05-.6-3.73-1-8.91-1.4-7.48-.57-13.62-.2-23.79,1.41-28.72,4.54-71.92,17.22-98.19,28.83-16.12,7.06-30.06,16.08-35.09,22.6-2.39,3.13-2,1.16.52-2.73a10.46,10.46,0,0,0,1.57-3.09c-.4-.73-10,3.67-14.62,6.74-11.66,7.71-22.24,18.27-28.69,28.37a54.23,54.23,0,0,0-3.57,6.44l-2.17,4.73-.52-3.5a18.78,18.78,0,0,1-.23-2.44A16,16,0,0,1,120.49,78c1-1.53,1.78-2.91,1.63-3.08-.39-.72-24.75,17.48-47.36,35.38-26.67,21.09-35.64,29.14-52.38,46.93C11.67,168.66,4.74,176.35,0,182.51V295.14c22.68-33,38.42-54.06,60.58-81.06,20.28-24.68,54.29-62.32,56-61.84a.82.82,0,0,1,.67.93c-.11.37-4.24,5.14-9.18,10.61C62.94,213.56,40.88,241.4,5.82,293Q2.91,297.29,0,301.64V428.46A135.26,135.26,0,0,0,19.88,410.3c14.58-15.87,20.89-24.7,39.91-55.44,6.57-10.62,14.17-22.55,16.94-26.57l5.12-7.23-3.11,1.25c-1.68.71-2.85,1-2.64.77,12.14-15.1,28.75-38.9,43.33-62.15,11.71-18.71,12.8-21.07,7.61-16.55a69.08,69.08,0,0,1-29.88,14.79,51.58,51.58,0,0,1-5.91,1c-.25-.07,1.74-.9,4.37-1.88,6.9-2.55,22.45-11.39,27.34-15.53,5.85-4.93,13.25-13.11,23.17-25.64,4.64-5.83,12.39-15,17.12-20.5,26.92-30.46,43.32-52.17,61.25-80.74A418.41,418.41,0,0,1,249.3,80c3.7-4.69,6.58-8.61,6.39-8.66s-6.09,2-13.21,4.68-13.34,4.92-13.95,5.14.86-.89,3.26-2.48c4.13-2.68,12.81-7.2,25.2-13,5.43-2.52,6-3,13.77-11.42,17.08-18.5,30.86-30.46,50.22-43.4C330.38,4.5,332.47,2.82,332,2.08Z"/></g></g></svg>